PathFileType  4	(X/Y/Z) C:\Users\HPL 1\Documents/Temp/Sub278498/Files_W_HJCs/
DataRate	CameraRate	NumFrames	NumMarkers	Units	OrigDataRate	OrigDataStartFrame	OrigNumFrames
50.0	50.0	7	42	mm	50.0	215	571
Frame#	Time  	r_knee			r_shank(antsup)			r_ankle			r_calc			r_5meta			r_toe			L_knee			L_shank(ant_sup)			L_ankle			L_calc			L_5meta			L_toe			r_mknee			r_mankle			L_mknee			L_mankle			r_sh2			r_sh3			r_sh4			L_sh2			L_sh3			r_thigh1			r_thigh2			r_thigh3			r_thigh4			r_thigh5			L_thigh1			L_thigh2			L_thigh3			L_thigh4			r.ASIS			r.PSIS			L.ASIS			L.PSIS			C7			R_Shoulder			L_Shoulder			Sternum			R_HJC			L_HJC			R_HJC_reg			L_HJC_reg			
		X1	Y1	Z1	X2	Y2	Z2	X3	Y3	Z3	X4	Y4	Z4	X5	Y5	Z5	X6	Y6	Z6	X7	Y7	Z7	X8	Y8	Z8	X9	Y9	Z9	X10	Y10	Z10	X11	Y11	Z11	X12	Y12	Z12	X13	Y13	Z13	X14	Y14	Z14	X15	Y15	Z15	X16	Y16	Z16	X17	Y17	Z17	X18	Y18	Z18	X19	Y19	Z19	X20	Y20	Z20	X21	Y21	Z21	X22	Y22	Z22	X23	Y23	Z23	X24	Y24	Z24	X25	Y25	Z25	X26	Y26	Z26	X27	Y27	Z27	X28	Y28	Z28	X29	Y29	Z29	X30	Y30	Z30	X31	Y31	Z31	X32	Y32	Z32	X33	Y33	Z33	X34	Y34	Z34	X35	Y35	Z35	X36	Y36	Z36	X37	Y37	Z37	X38	Y38	Z38	X39	Y39	Z39	X40	Y40	Z40	X41	Y41	Z41	X42	Y42	Z42	

215	4.28000	776.62915	943.50421	-247.11703	791.77606	899.32373	-168.86603	721.99396	716.17969	164.80449	637.11945	646.16980	178.31116	828.54675	709.78833	249.69395	873.96796	678.41278	189.99977	761.25763	565.33356	-849.44330	793.96796	446.35080	-838.51471	698.17419	110.26099	-806.69818	621.45947	72.31176	-753.71375	814.10425	41.77042	-849.44165	861.34735	69.83218	-793.44635	795.71271	825.04639	-291.45679	743.54578	637.38354	113.60564	790.40863	566.99670	-726.65668	728.45581	121.02861	-716.50055	779.71405	853.93115	-59.20842	716.51471	903.26868	-173.83139	696.65894	861.57983	-66.13078	706.86127	466.53442	-859.62360	691.18927	345.41159	-848.59210	808.89850	1119.10876	-525.07776	820.37494	1060.76685	-427.18250	777.60797	1047.27686	-392.68802	695.33582	1108.96167	-511.22418	714.33051	1043.08069	-414.47943	808.08759	840.65778	-896.95221	829.07324	704.52295	-883.92310	692.54901	822.97968	-900.21735	718.00110	692.38434	-873.93524	831.38049	1186.41125	-664.12964	641.24280	1185.23010	-754.25018	814.84998	1079.39209	-900.00983	640.03900	1148.85376	-825.86786	740.57410	1632.26074	-857.84589	776.00397	1618.04089	-693.89014	806.87421	1565.91846	-1032.23926	867.71582	1538.29346	-845.22888	760.50698	1104.12090	-635.28671	748.08091	1005.64240	-849.79962	752.90770	1108.03878	-663.99533	750.34079	1030.47201	-816.70865
216	4.30000	778.30444	946.28271	-246.57748	794.77838	900.64240	-169.76198	722.16705	724.19904	166.69945	636.70789	656.00226	183.23657	829.27533	719.35760	251.25725	873.73596	686.56805	192.45767	760.69269	565.40381	-848.36951	793.62585	446.68420	-837.62457	698.26660	110.48025	-806.37213	621.57361	72.53719	-753.65454	814.14429	41.90406	-849.36584	861.47119	69.77592	-793.35980	794.96600	827.82617	-290.08728	742.65918	644.26410	117.21949	790.88416	567.19104	-725.87329	728.67651	121.03962	-716.27393	782.14227	858.78076	-59.66080	719.10394	905.96381	-175.78813	699.22272	869.79688	-65.82423	706.16901	467.07388	-858.65546	691.31055	345.91605	-847.55347	808.74872	1120.77673	-525.48236	820.36658	1063.21509	-427.25491	777.58417	1049.64038	-392.64090	695.37787	1111.13647	-511.39154	714.15961	1045.65149	-414.09082	806.84894	840.47540	-896.37793	829.21478	703.03809	-882.27686	690.91779	822.64526	-898.55231	716.62585	691.99542	-872.58087	831.27185	1187.68982	-665.04089	640.92761	1186.44312	-754.86749	813.67767	1078.81860	-900.16016	639.27490	1149.42090	-826.26563	742.14392	1632.26392	-858.33459	776.79321	1617.28406	-694.28845	809.55890	1565.65637	-1032.50439	868.96051	1537.59802	-845.47705	760.09628	1105.85364	-635.50645	746.82745	1005.69820	-849.19088	752.57719	1109.72179	-663.99810	749.05573	1030.83785	-816.12746
217	4.32000	776.89960	946.95416	-247.30257	795.05695	901.05371	-170.72667	723.05780	728.01312	168.07074	637.52582	659.87439	186.41365	830.66785	724.28979	250.99873	874.70215	690.00494	191.97928	759.58148	565.47052	-847.48370	793.16827	447.14645	-836.38348	698.31592	110.66344	-805.96069	621.63977	72.65062	-753.50159	814.21130	42.02987	-849.17078	861.54816	69.81724	-793.13086	791.09204	827.41217	-290.95206	742.73218	646.75989	119.06499	790.04718	567.58636	-724.86951	728.72900	120.92674	-715.88141	782.28705	859.68427	-60.35139	718.48401	906.65503	-176.72673	699.54395	872.22113	-65.82888	705.84534	467.48434	-857.73285	690.62360	346.30551	-846.85986	808.42969	1120.14709	-526.25031	819.54529	1062.94006	-427.82895	776.61182	1049.76660	-393.22626	694.73553	1111.64929	-512.36658	713.25336	1046.10315	-414.94119	804.55127	839.56653	-896.85754	829.28625	706.50690	-882.61395	689.22327	821.94836	-897.57611	714.84784	691.48364	-870.92310	831.31976	1187.23621	-665.88501	640.88489	1187.58435	-755.13867	812.17194	1078.14844	-900.78967	638.82379	1150.43481	-826.41351	743.96411	1632.21509	-859.33954	777.77344	1616.68152	-695.12677	811.99396	1565.28992	-1033.30249	870.35254	1536.99170	-846.05481	759.61925	1106.08926	-635.98828	744.85203	1005.72293	-849.47537	751.84422	1110.01990	-664.58668	747.45023	1030.82208	-816.53504
218	4.34000	774.89764	945.55365	-248.36130	794.06598	900.91412	-171.70094	724.00568	726.36993	167.62581	638.76257	657.99170	186.78224	832.38104	722.58588	249.34488	875.97137	688.54657	190.12895	758.04083	565.47485	-847.20306	792.48462	447.49225	-835.69250	698.25787	110.69954	-805.76160	621.60272	72.58041	-753.43768	814.17957	42.13133	-849.10730	861.51556	69.86296	-793.03479	781.70239	824.49146	-291.53958	743.06683	645.35522	118.42643	787.98383	567.79797	-724.19421	728.56598	120.74403	-715.67957	781.50299	858.10461	-61.24977	717.70520	906.28577	-176.98129	698.77148	871.22717	-66.13931	705.05011	467.67102	-857.39307	690.01080	346.46408	-846.68231	807.66760	1117.61755	-526.92657	818.48792	1060.28088	-428.82266	775.25775	1047.96667	-393.96539	694.25116	1110.61816	-513.08020	711.75958	1044.81641	-415.91580	802.59088	838.35785	-898.26422	823.17285	702.23474	-883.02277	686.90826	821.71387	-896.40692	712.40173	691.11737	-869.49927	831.49237	1185.84204	-666.52905	640.87030	1187.91663	-755.12244	811.48303	1077.68091	-901.77399	638.52435	1150.97485	-826.45416	745.90448	1631.98315	-860.51038	779.24988	1616.16504	-696.16870	813.92938	1564.94299	-1034.43872	871.79645	1536.32324	-847.08264	759.45746	1105.10458	-636.63066	743.55318	1005.61501	-850.44622	751.49831	1109.24439	-665.41433	746.49500	1030.45720	-817.54631
219	4.36000	772.52484	942.91595	-249.85480	790.46674	900.81555	-172.29573	725.05481	720.04950	165.45950	639.95947	651.79547	184.19623	834.06592	714.60840	246.67752	877.19183	681.11847	186.33348	756.34900	565.29932	-847.88123	791.51965	447.53177	-836.05542	698.11078	110.46688	-805.91132	621.49548	72.36418	-753.50800	814.12561	42.08632	-849.10492	861.41095	69.89156	-793.02045	777.78308	820.24487	-292.97443	743.67010	640.36481	114.99271	785.88666	567.72705	-724.45917	728.30438	120.68230	-715.77893	780.44440	853.94598	-62.92963	714.71191	904.67017	-176.37135	697.46667	866.54065	-66.26047	704.35980	467.26981	-857.90112	689.33673	346.26105	-847.29388	806.95837	1114.22766	-527.57367	817.95709	1056.53430	-429.93658	774.71649	1045.33337	-394.49487	693.89435	1109.03735	-513.29016	710.77887	1042.51331	-416.30655	801.04901	837.40576	-899.93054	820.80554	701.21429	-884.12024	684.86371	821.36713	-896.64929	709.62646	690.95282	-869.59583	831.49152	1183.98694	-666.96924	640.47272	1187.81409	-755.05164	810.87311	1077.07947	-902.64288	638.15259	1151.21411	-826.49512	747.88934	1631.69104	-861.24170	781.31116	1615.74353	-697.17059	815.21472	1564.72827	-1035.30347	873.30603	1535.52466	-848.09937	759.02719	1103.60431	-637.21483	742.27347	1005.27642	-851.50237	750.76393	1107.79929	-666.36868	745.81370	1029.70970	-818.80023
220	4.38000	770.03894	938.43689	-251.62163	786.05231	897.84039	-172.21809	726.11652	710.92297	162.33224	640.69757	642.55206	178.99042	835.52002	701.90558	242.68811	877.98730	669.23486	181.25612	755.44507	565.16803	-849.28839	790.47638	447.55756	-837.51398	698.00177	110.30100	-806.30676	621.43634	72.28392	-753.65100	814.17383	42.00766	-849.20538	861.34052	69.83605	-793.16931	777.07562	816.69208	-295.64932	743.73358	631.58807	109.84071	785.25958	567.57135	-725.93622	728.19318	120.82730	-716.19946	777.92334	847.35876	-64.30087	710.03070	901.85651	-173.76979	694.64801	856.46411	-67.05212	703.36115	467.32535	-859.18481	688.64063	346.08688	-848.16058	806.92474	1111.43506	-528.08661	817.98737	1052.53125	-431.38644	775.12195	1042.00256	-395.34329	694.06818	1107.75806	-512.94568	710.96509	1040.15063	-416.72519	799.21674	836.80438	-901.95789	819.43286	701.01001	-885.96014	683.66199	821.54950	-897.82855	708.58380	690.82733	-871.29071	831.27094	1182.53845	-667.13318	640.15186	1187.30688	-755.30054	810.29449	1076.51379	-903.20520	637.42358	1151.19482	-826.90259	749.57410	1631.39050	-861.75940	783.67853	1615.26306	-697.85870	815.96436	1564.62463	-1035.99707	874.70074	1534.69141	-849.10455	758.35410	1102.31338	-637.72401	741.27821	1004.82938	-852.37138	750.61008	1106.37408	-666.62234	744.78354	1029.25282	-819.53636
221	4.40000	768.50488	931.73511	-253.81749	784.09650	890.39087	-174.18213	726.45184	697.87634	156.42017	640.01428	630.99182	172.55414	836.16736	685.85370	236.58353	877.91156	653.84491	174.28003	754.95959	565.20251	-850.92975	789.68488	447.64709	-839.19489	698.00055	110.24637	-806.81732	621.43097	72.27940	-753.89856	814.05347	41.75270	-849.38995	861.31238	69.67189	-793.37585	776.68915	811.81354	-299.72903	742.35938	619.94861	101.66788	785.08960	567.52759	-728.09717	728.12305	120.99992	-716.67499	776.59485	837.29651	-67.68528	707.87524	895.25079	-175.01247	693.23071	846.48102	-68.86737	702.13055	467.21478	-861.12549	688.03186	345.95145	-849.30731	807.37842	1108.45520	-528.73480	818.33344	1048.18469	-432.74625	775.38470	1037.58789	-396.85098	694.59064	1106.34375	-512.55908	711.30194	1037.24109	-417.48828	799.74054	837.80359	-902.40735	819.34265	701.47021	-887.37219	683.87183	821.51147	-899.83240	708.59540	691.11182	-873.61401	830.81537	1181.37488	-667.33020	639.81415	1186.94861	-755.90118	809.61707	1076.29688	-903.68066	636.73560	1150.95740	-827.55511	751.45508	1631.20764	-861.97766	785.91711	1614.75427	-698.16040	816.23431	1564.45825	-1036.65771	876.08887	1534.00256	-849.85565	757.52445	1101.27850	-638.32091	740.44354	1004.50731	-853.29019	750.12698	1105.94185	-666.90949	743.55566	1029.11678	-819.85845
